<svg width="134" height="39" viewBox="0 0 134 39" xmlns="http://www.w3.org/2000/svg">
  <title>
    Combined Shape
  </title>
  <path d="M82.84 33.87H80.1V3.77L71 7.13V4.57L82.38.34h.46v33.53zm7.13-17.12L91.59.45h16.71v2.56H93.96L92.79 14.3a10.87 10.87 0 0 1 6.29-1.84c3.01 0 5.41.98 7.2 2.94 1.8 1.96 2.69 4.57 2.69 7.82 0 3.52-.87 6.25-2.62 8.2-1.74 1.94-4.2 2.91-7.37 2.91-2.9 0-5.26-.8-7.06-2.43-1.8-1.62-2.84-3.9-3.1-6.82h2.64c.26 2.28 1.03 4 2.31 5.18C95.06 31.43 96.8 32 98.98 32c2.4 0 4.2-.75 5.4-2.27 1.23-1.51 1.83-3.67 1.83-6.47 0-2.45-.68-4.44-2.04-5.99-1.36-1.54-3.22-2.32-5.58-2.32-1.3 0-2.43.17-3.4.5-.96.33-1.97.96-3.04 1.91l-2.18-.62zm43.23 3.2c0 4.7-.86 8.28-2.59 10.72-1.73 2.44-4.28 3.66-7.64 3.66-3.3 0-5.84-1.2-7.6-3.59-1.76-2.4-2.66-5.88-2.7-10.45v-6c0-4.69.87-8.25 2.61-10.66 1.74-2.42 4.3-3.63 7.64-3.63 3.3 0 5.83 1.17 7.58 3.5 1.74 2.33 2.64 5.77 2.7 10.32v6.12zm-2.75-6v6.43c-.02 3.8-.65 6.7-1.92 8.67a6.2 6.2 0 0 1-5.56 2.96 6.28 6.28 0 0 1-5.64-3.03c-1.29-2.01-1.94-4.93-1.94-8.74v-6.56c.04-3.74.68-6.56 1.93-8.47 1.26-1.91 3.12-2.87 5.6-2.87 2.53 0 4.41.98 5.66 2.94s1.87 4.85 1.87 8.67zM14.45 34V19.78h4.87c1.6 0 2.83.32 3.67.97.84.64 1.26 1.6 1.26 2.88 0 .65-.18 1.24-.53 1.76a3.4 3.4 0 0 1-1.54 1.2 3.14 3.14 0 0 1 2.41 3.26c0 1.33-.43 2.36-1.28 3.08-.86.71-2.08 1.07-3.68 1.07h-5.18zm2.47-6.42v4.45h2.74c.77 0 1.38-.2 1.82-.58.43-.38.65-.92.65-1.6 0-1.48-.75-2.23-2.26-2.27h-2.95zm0-1.81h2.42a2.8 2.8 0 0 0 1.8-.52c.43-.35.65-.85.65-1.48 0-.7-.2-1.22-.6-1.53-.4-.31-1.03-.47-1.87-.47h-2.4v4zm13.6 4.83l2.16-7.17h2.53L31 35.6c-.65 1.78-1.74 2.67-3.28 2.67-.35 0-.73-.06-1.15-.18v-1.83l.45.03c.6 0 1.05-.11 1.36-.33.3-.22.54-.59.71-1.1l.35-.9-3.72-10.53h2.56l2.24 7.17zm11.58-5a5.87 5.87 0 0 0-.97-.08c-1.08 0-1.81.42-2.2 1.25V34h-2.37V23.43h2.27l.06 1.19a2.67 2.67 0 0 1 2.38-1.38c.34 0 .62.04.84.14v2.22zm7.81 8.4c-.1-.2-.2-.53-.27-.99a3.7 3.7 0 0 1-2.77 1.19c-1.06 0-1.93-.3-2.6-.91a2.9 2.9 0 0 1-1-2.25 3 3 0 0 1 1.25-2.6c.84-.6 2.03-.9 3.59-.9h1.45v-.69c0-.55-.15-.98-.46-1.31-.3-.33-.77-.5-1.4-.5-.53 0-.98.14-1.32.41-.35.27-.52.61-.52 1.03H43.5c0-.58.19-1.12.57-1.63.39-.5.91-.9 1.57-1.18a5.5 5.5 0 0 1 2.21-.43c1.24 0 2.23.3 2.96.93.74.62 1.12 1.5 1.14 2.62v4.77c0 .95.13 1.7.4 2.27V34H49.9zm-2.6-1.7c.47 0 .9-.12 1.32-.35.41-.23.72-.53.93-.92v-2h-1.28a3.5 3.5 0 0 0-1.98.47c-.44.3-.66.74-.66 1.3 0 .45.15.82.45 1.09.3.27.7.4 1.22.4zm.62-14.22c.6 0 1.12.2 1.53.6.42.4.63.88.63 1.43 0 .56-.2 1.03-.61 1.42-.4.39-.92.59-1.55.59s-1.15-.2-1.56-.6a1.9 1.9 0 0 1-.6-1.4c0-.56.2-1.04.61-1.44.42-.4.93-.6 1.55-.6zm-1.1 2.03c0 .3.12.57.33.78.22.21.47.32.77.32.3 0 .57-.1.78-.32.21-.2.32-.46.32-.78 0-.3-.1-.55-.31-.77-.2-.22-.47-.33-.79-.33-.32 0-.58.1-.78.33-.21.22-.31.47-.31.77zm7.15 8.53c0-1.63.37-2.94 1.13-3.92a3.63 3.63 0 0 1 3.04-1.48c1.12 0 2.02.39 2.71 1.17V19h2.37v15H61.1l-.12-1.1a3.5 3.5 0 0 1-2.84 1.3 3.6 3.6 0 0 1-3-1.5 6.51 6.51 0 0 1-1.15-4.06zm2.37.2c0 1.08.2 1.92.62 2.52.41.6 1 .9 1.76.9.97 0 1.68-.43 2.13-1.3v-4.5a2.2 2.2 0 0 0-2.1-1.28c-.78 0-1.37.3-1.79.91a4.9 4.9 0 0 0-.62 2.75zM9.23 12.7h-5.5L2.56 16H0L5.37 1.78H7.6L12.97 16h-2.58l-1.16-3.31zm-4.82-2h4.13L6.47 4.8l-2.06 5.9zM20.66 16c-.1-.2-.2-.53-.27-.99a3.7 3.7 0 0 1-2.77 1.19c-1.06 0-1.93-.3-2.6-.91a2.9 2.9 0 0 1-1-2.25 3 3 0 0 1 1.25-2.6c.84-.6 2.03-.9 3.59-.9h1.45v-.69c0-.55-.15-.98-.46-1.31-.3-.33-.77-.5-1.4-.5-.53 0-.98.14-1.32.41-.35.27-.52.61-.52 1.03h-2.37c0-.58.19-1.12.57-1.63.39-.5.91-.9 1.57-1.18a5.5 5.5 0 0 1 2.21-.43c1.24 0 2.23.3 2.96.93.74.62 1.12 1.5 1.14 2.62v4.77c0 .95.13 1.7.4 2.27V16h-2.43zm-2.6-1.7c.47 0 .9-.12 1.32-.35.41-.23.72-.53.93-.92v-2h-1.28a3.5 3.5 0 0 0-1.98.47c-.44.3-.66.74-.66 1.3 0 .45.15.82.45 1.09.3.27.7.4 1.22.4zM30.7 7.6a5.87 5.87 0 0 0-.96-.08c-1.1 0-1.82.42-2.2 1.25V16h-2.37V5.43h2.26l.06 1.19a2.67 2.67 0 0 1 2.38-1.38c.34 0 .62.04.84.13V7.6zm3.84-1.01a3.71 3.71 0 0 1 2.94-1.35c2.25 0 3.4 1.28 3.43 3.86V16h-2.37V9.18c0-.73-.16-1.24-.48-1.54-.31-.3-.78-.46-1.39-.46-.95 0-1.66.42-2.13 1.27V16h-2.37V1h2.37v5.59zm15.17 8.37a3.68 3.68 0 0 1-2.97 1.24c-1.15 0-2.02-.34-2.6-1.01-.6-.67-.89-1.64-.89-2.91V5.43h2.38v6.82c0 1.34.55 2.01 1.66 2.01 1.16 0 1.94-.41 2.34-1.24V5.43H52V16h-2.23l-.06-1.04zm10.63-1.83c0-.42-.17-.75-.52-.97a5.56 5.56 0 0 0-1.73-.58 8.91 8.91 0 0 1-2.03-.65c-1.18-.57-1.77-1.4-1.77-2.49 0-.91.38-1.67 1.15-2.28a4.56 4.56 0 0 1 2.93-.92c1.26 0 2.28.31 3.06.94A2.97 2.97 0 0 1 62.6 8.6h-2.38c0-.46-.16-.84-.5-1.14-.34-.3-.8-.45-1.35-.45-.52 0-.95.12-1.28.36-.32.24-.49.56-.49.96 0 .37.15.65.46.85.3.2.93.4 1.86.61.93.2 1.66.45 2.19.74.53.28.92.62 1.18 1.02.26.4.39.88.39 1.44 0 .95-.4 1.72-1.19 2.31-.78.6-1.82.89-3.1.89-.86 0-1.63-.16-2.3-.47a3.8 3.8 0 0 1-1.59-1.3 3.05 3.05 0 0 1-.56-1.76h2.3c.03.56.24 1 .63 1.3.4.3.91.45 1.56.45.62 0 1.1-.12 1.42-.36.33-.24.5-.55.5-.93z" fill="#262626" fill-rule="evenodd"/>
</svg>
