<svg id="Layer_1" xmlns="http://www.w3.org/2000/svg" viewBox="0 0 883.89 503.59">
  <style>
    .st0{fill:#fff}
  </style>
  <switch>
    <g>
      <path class="st0" d="M830.23 114.86c0 36.81-28.83 66.97-64.75 66.97s-64.75-30.16-64.75-66.97 28.83-66.52 64.75-66.52 64.75 29.71 64.75 66.52m53.66 0C883.89 51.45 831.11 0 765.48 0S647.06 51.45 647.06 114.86s52.78 114.86 118.41 114.86 118.42-51.44 118.42-114.86M616.47 208c0-51-28.38-86.04-75.39-92.25l-19.51-2.66V48.78h86.48V4.43H471v150.34l31.04 2.66c40.8 3.55 60.76 22.17 60.76 55.44 0 20.4-9.76 38.58-25.28 47.9-13.3 7.98-23.06 9.76-53.66 10.64-3.99 0-10.2.44-18.18.44v47.45c38.14 0 53.66-1.77 72.29-7.1 13.3-3.99 25.72-9.76 36.37-17.3 27.93-19.94 42.13-49.21 42.13-86.9m-210.66 13.74V4.43H302.92v44.35h50.11v172.96h52.78zM388.82 446.42c-4.08 6.34-9.29 9.86-14.51 9.86-8.03 0-13.52-8.31-13.52-20.14 0-12.39 6.9-21.55 16.2-21.55 5.21 0 9.86 2.53 10.98 6.06.42 1.41.85 4.79.85 8.45v17.32zm16.76 21.83V365.58h-16.76v39.85c-3.66-2.54-5.21-3.1-8.73-3.94a28.2 28.2 0 0 0-5.77-.7c-17.32 0-31.26 16.34-31.26 36.62 0 18.87 11.41 32.67 26.9 32.67 4.37 0 8.45-1.27 12.25-3.66 3.1-1.97 4.23-3.24 6.62-7.04v8.87h16.75zm-93.37-85.35a5.8 5.8 0 0 1-5.77 5.77 5.83 5.83 0 0 1-5.91-5.77 5.96 5.96 0 0 1 5.91-5.92 5.94 5.94 0 0 1 5.77 5.92m7.75 0c0-7.46-6.05-13.66-13.52-13.66-7.6 0-13.66 6.2-13.66 13.66s6.06 13.52 13.66 13.52c7.46 0 13.52-6.05 13.52-13.52m-6.9 69.01c-2.39 1.83-3.24 2.39-4.37 2.96a14.7 14.7 0 0 1-6.9 1.97c-4.22 0-6.76-2.54-6.76-6.76 0-1.69.28-2.96 1.27-5.49l16.76-5.49v12.81zm22.11 4.51c-4.51-.42-5.21-1.41-5.21-7.32v-27.32c0-14.36-7.04-20.84-22.67-20.84-17.74 0-27.88 6.62-27.88 18.17 0 1.83.14 2.54.85 4.51l16.05-3.52c-.28-.85-.42-1.13-.42-1.69 0-3.24 4.08-5.91 9.15-5.91 5.49 0 8.03 3.24 8.03 10.28v5.49l-18.59 5.35c-9.58 2.82-13.52 5.92-15.77 11.97a21.2 21.2 0 0 0-1.13 6.62c0 10.42 7.89 17.74 19.01 17.74 6.62 0 12.11-2.39 18.31-8.03 2.96 5.77 5.63 7.18 14.08 7.18h3.52l2.67-12.68zm-61.54-50c-2.68-3.1-5.63-4.65-9.15-4.65-5.07 0-9.15 4.22-15.49 15.35l-.71-14.36h-14.51v65.48h16.76v-30c0-4.93 1.41-8.73 4.51-12.53 2.53-3.1 5.49-4.93 8.17-4.93 1.83 0 3.24.56 5.07 1.97l5.35-16.33zm-49.15-3.66h-16.62L198 431.91l-1.83 7.89-1.69-7.89-11.55-29.15h-18.31l24.08 55.49c-3.66 10.56-5.77 14.65-10 21.27-3.66 5.63-5.92 8.45-12.11 15.07l13.8 9.01c5.63-7.04 7.46-9.72 11.55-16.48 4.79-8.03 7.32-13.1 10.56-22.39l21.98-61.97zm-87.17-1.55c0 7.89-5.35 12.11-15.35 12.11H111.4v-23.94h11.55c9.01 0 14.36 4.37 14.36 11.83m2.67 40.28c0 4.79-2.39 8.87-6.34 10.84-2.68 1.27-5.21 1.69-10.7 1.69h-11.55v-25.63h11.55c10.99 0 17.04 4.65 17.04 13.1m19.44 1.97c0-14.51-8.87-23.66-22.96-23.94 7.32-.42 11.12-2.11 15.21-6.76a23.13 23.13 0 0 0 5.35-14.65c0-6.05-2.82-12.67-7.32-16.62-5.07-4.65-11.12-6.2-23.24-6.2H92.8v92.95h37.88c18.6.01 28.74-8.73 28.74-24.78M409.38 275c-5.92-3.38-8.17-4.23-14.37-5.49a54.22 54.22 0 0 0-10.84-1.27c-15.91 0-26.62 8.31-26.62 20.56 0 8.73 5.35 14.79 16.9 19.29l11.27 4.37c4.51 1.69 6.62 3.94 6.62 6.9 0 3.52-3.8 5.63-10.28 5.63-2.39 0-4.79-.42-7.32-1.27-4.79-1.55-7.46-2.82-14.08-6.9l-5.35 13.66c7.18 3.66 10.14 4.79 16.19 6.05a50.8 50.8 0 0 0 10.7 1.27c15.77 0 26.19-7.89 26.19-19.86 0-5.77-2.68-11.55-6.76-14.51-2.96-2.11-12.39-6.48-19.72-9.01-5.91-2.11-8.17-3.94-8.17-6.9 0-3.66 4.22-6.2 10.7-6.2 4.79 0 10.42 1.69 15.07 4.51 1.27.7 2.82 1.69 4.51 2.82l5.36-13.65zm-67.88 60.98V270.5h-16.9v39.43l-2.25 2.39c-7.32 7.75-12.25 11.41-15.91 11.41-3.94 0-5.35-3.1-5.35-11.12V270.5h-16.9v48.16c0 12.39 5.92 18.45 17.74 18.45 8.31 0 14.79-3.38 22.67-12.11v10.98h16.9zm-76.18 0v-48.16c0-12.39-5.92-18.59-17.74-18.59-8.31 0-14.79 3.52-22.67 12.11v-48.02H208v102.66h16.9v-39.43l2.25-2.39c7.32-7.89 12.25-11.41 15.77-11.41 4.08 0 5.49 2.96 5.49 11.13v42.11h16.91zm-66.33-61.83c-2.68-3.1-5.63-4.65-9.15-4.65-5.07 0-9.15 4.23-15.49 15.35l-.7-14.36h-14.51v65.48h16.76v-30c0-4.93 1.41-8.73 4.51-12.53 2.54-3.1 5.49-4.93 8.17-4.93 1.83 0 3.24.56 5.07 1.97l5.34-16.33zm-75.06 45.49c-2.39 1.83-3.24 2.39-4.36 2.96a14.7 14.7 0 0 1-6.9 1.97c-4.23 0-6.76-2.53-6.76-6.76 0-1.69.28-2.96 1.27-5.49l16.76-5.49v12.81zm22.11 4.51c-4.51-.42-5.21-1.41-5.21-7.32V289.5c0-14.37-7.04-20.84-22.67-20.84-17.74 0-27.88 6.62-27.88 18.17 0 1.83.14 2.54.85 4.51l16.06-3.52c-.28-.85-.42-1.13-.42-1.69 0-3.24 4.08-5.92 9.15-5.92 5.49 0 8.03 3.24 8.03 10.28v5.49l-18.59 5.35c-9.58 2.82-13.52 5.92-15.77 11.97a21.15 21.15 0 0 0-1.13 6.62c0 10.42 7.89 17.74 19.01 17.74 6.62 0 12.11-2.39 18.31-8.03 2.96 5.77 5.63 7.18 14.08 7.18h3.52l2.66-12.66zm-93.51-26.2H30.98l10.7-33.66 10.85 33.66zm30.7 38.03l-33.66-92.95H33.66L0 335.98h18.59l7.6-22.95h31.12l7.32 22.95h18.6z"/>
    </g>
  </switch>
</svg>
