<svg data-name="Layer 1" xmlns="http://www.w3.org/2000/svg" viewBox="0 0 178.82 48.44">
  <path d="M0 39.68h34.02v8.5H0zM25.51 8.5h8.5v25.53h-8.5zM0 8.5h8.5v25.53H0zM12.76 0h8.5v34.02h-8.5zM58.8 24.13l-1.62-4.65H50.8l-1.62 4.65h-2.1L53 7.92h2.1l5.8 16.21zM54 10.48l-2.58 7.21h5.14zM73.23 24.13l-1.62-4.65h-6.37l-1.62 4.65h-2.1l5.87-16.21h2.1l5.84 16.21zm-4.79-13.65l-2.58 7.21H71zM86.52 24.13l-4.34-6.76h-2.1v6.76h-2V8.38h4.8c1.91 0 2.82.28 3.72 1.17a4.32 4.32 0 0 1 1.25 3.08 4.5 4.5 0 0 1-1.39 3.26 4.15 4.15 0 0 1-2.39 1.2l4.66 7zm-1.59-13.65c-.48-.38-.93-.48-2.29-.48h-2.56v5.71h2.56c2.07 0 3.15-1.05 3.15-3.08a2.6 2.6 0 0 0-.86-2.15zM103.54 24.13v-7.21h-9.29v7.21h-2V8.38h2v6.75h9.29V8.38h2v15.75zM121 23.13a6.64 6.64 0 0 1-4.31 1.45 6.75 6.75 0 0 1-4.35-1.45 5.06 5.06 0 0 1-1.84-4.4V8.38h2v9.76c0 2 .14 2.5.91 3.34a4.67 4.67 0 0 0 6.59 0c.76-.84.9-1.38.9-3.34V8.38h2v10.35c-.08 2.11-.58 3.32-1.9 4.4zM135.8 11.05a7.75 7.75 0 0 0-1.65-.81A8.46 8.46 0 0 0 132 9.9c-1.79 0-3 .89-3 2.22 0 1.17.7 1.77 3.89 3.46a13.72 13.72 0 0 1 2.48 1.6 3.75 3.75 0 0 1 1.22 2.87c0 2.69-2 4.39-5.18 4.39a7.82 7.82 0 0 1-2.91-.53 9.42 9.42 0 0 1-2-1.17l1-1.55a8.43 8.43 0 0 0 1.81 1 6.4 6.4 0 0 0 2.27.4c1.86 0 3-.88 3-2.38a2.17 2.17 0 0 0-.24-1.12A3.48 3.48 0 0 0 133 17.8c-.26-.14-1.14-.6-2.62-1.41-2.36-1.27-3.37-2.51-3.37-4.13 0-2.5 2.08-4.18 5.21-4.18a8.63 8.63 0 0 1 2.65.39 8.33 8.33 0 0 1 1.91.93zM57.75 36a10.8 10.8 0 0 0-4.08-1.13c-1.41 0-2.32.58-2.32 1.46 0 .67.39 1.07 1.51 1.67a22.72 22.72 0 0 1 4.72 3 4 4 0 0 1 1.08 2.82c0 2.81-2.06 4.46-5.54 4.46a8.14 8.14 0 0 1-1.41-.1 9.3 9.3 0 0 1-3.29-1.09l-1-.48 1.27-2.77A17.9 17.9 0 0 0 50.9 45a7.11 7.11 0 0 0 2.27.45c1.38 0 2.29-.62 2.29-1.57 0-.67-.36-1.12-1.39-1.7l-2.43-1.38C48.85 39.16 48 38.11 48 36.39a4.19 4.19 0 0 1 .62-2.19 4.33 4.33 0 0 1 1.16-1.2 6.07 6.07 0 0 1 4-1.05 10.42 10.42 0 0 1 3 .4 14.63 14.63 0 0 1 2.24.91zM67.79 34.79V48h-3V34.79h-4.73v-2.55h12.46v2.55zM82.56 48l-1.24-3.9h-5.27L74.76 48h-3.15l5.7-15.75H80L85.71 48zm-3.89-12.16l-1.81 5.71h3.65zM99.62 45.68C98.17 47.23 96.09 48 93.25 48h-5.82V32.24h5.85c3 0 4.84.67 6.39 2.31a8.14 8.14 0 0 1 2.13 5.52 8.25 8.25 0 0 1-2.18 5.61zm-2.88-9.86a6.23 6.23 0 0 0-3.74-.93h-2.42v10.45H93c3.58 0 5.58-1.88 5.58-5.25a5.34 5.34 0 0 0-1.84-4.27zM113.25 36a10.8 10.8 0 0 0-4.08-1.13c-1.41 0-2.32.58-2.32 1.46 0 .67.39 1.07 1.51 1.67a22.72 22.72 0 0 1 4.72 3 4 4 0 0 1 1.08 2.82c0 2.81-2.06 4.46-5.54 4.46a8.22 8.22 0 0 1-1.41-.1 9.3 9.3 0 0 1-3.29-1.09l-1-.48 1.27-2.77A17.9 17.9 0 0 0 106.4 45a7.11 7.11 0 0 0 2.27.45c1.38 0 2.29-.62 2.29-1.57 0-.67-.36-1.12-1.39-1.7l-2.43-1.38c-2.79-1.6-3.65-2.65-3.65-4.37a4.19 4.19 0 0 1 .62-2.19 4.33 4.33 0 0 1 1.17-1.24 6.07 6.07 0 0 1 4-1.05 10.42 10.42 0 0 1 3 .4 14.63 14.63 0 0 1 2.24.91zM126.37 48l-1.24-3.89h-5.27L118.57 48h-3.15l5.7-15.75h2.7l5.7 15.75zm-3.89-12.15l-1.81 5.71h3.65zM139.83 48l-3.6-6.3h-1.51V48h-3V32.24H137c2.29 0 3.34.29 4.27 1.17a4.4 4.4 0 0 1 1.29 3.41 4.79 4.79 0 0 1-.86 3 4 4 0 0 1-2.46 1.46l3.88 6.72zm-3.15-13.2h-2v4.35h2c1.91 0 2.74-.67 2.74-2.25s-.78-2.11-2.74-2.11zM154 48l-5.25-7.49V48h-3V32.24h3v7.35l4.94-7.35h3.46l-5.42 7.66 5.69 8.1zM159.66 48V32.24h3V48zM173 48.44h-2.1l-5.9-16.2h3.29l3.6 10.64a4 4 0 0 1 .17.74 2.06 2.06 0 0 1 .14-.74l3.44-10.64h3.15z"/>
</svg>
